<svg width="352" height="224" fill="none" xmlns="http://www.w3.org/2000/svg"><path opacity=".35" d="M351.455 21.963v180.13c0 .364-.01.717-.031 1.081-.01.259-.041.519-.052.779-.945 10.722-9.953 19.137-20.913 19.137H21.543c-7.875 0-14.732-4.332-18.316-10.753a2.855 2.855 0 0 1-.218-.374 20.773 20.773 0 0 1-2.462-9.87V21.963c0-.467.01-.934.052-1.402.01-.26.041-.52.052-.78C1.75 9.227 10.687.978 21.543.978H330.46c4.135 0 8.02 1.216 11.272 3.294a21.109 21.109 0 0 1 6.68 6.804c.021.053.063.094.084.146a20.867 20.867 0 0 1 2.96 10.742Z" fill="url(#a)"/><path d="M351.476 21.641v180.13c0 .468-.01.935-.052 1.403-.01.259-.041.519-.052.779-1.101 10.555-10.046 18.804-20.893 18.804H21.564a20.775 20.775 0 0 1-12.955-4.488c-.156-.104-.312-.239-.468-.363-4.633-3.855-7.574-9.662-7.574-16.135V21.641c0-.363.01-.727.032-1.08.01-.29.041-.572.062-.862C1.638 9.009 10.614.645 21.564.645H330.48c4.135 0 8.021 1.194 11.273 3.293.353.218.706.457 1.049.707.208.166.426.322.634.509a20.828 20.828 0 0 1 8.041 16.487Z" fill="url(#b)"/><mask id="d" style="mask-type:alpha" maskUnits="userSpaceOnUse" x="0" y="1" width="350" height="223"><path d="M349.897 22.098v180.307c0 .468-.01.936-.052 1.404-.01.26-.041.52-.051.78-1.096 10.566-9.994 18.823-20.784 18.823H21.704a20.585 20.585 0 0 1-12.888-4.493c-.155-.104-.31-.239-.465-.364a21.015 21.015 0 0 1-7.534-16.15V22.098c0-.364.01-.727.03-1.081.011-.291.042-.572.063-.863C1.88 9.453 10.81 1.08 21.704 1.08H329.01a20.54 20.54 0 0 1 11.213 3.297c.352.218.703.457 1.044.707.207.166.424.322.631.51 4.878 3.816 7.999 9.796 7.999 16.503Z" fill="url(#c)"/></mask><g mask="url(#d)"><path d="m147.555 54.918 2.047 3.159a2.586 2.586 0 0 0 3.584.758l134.271-87.218a2.587 2.587 0 0 0 .759-3.584l-2.047-3.159a2.587 2.587 0 0 0-3.584-.758L148.314 51.324a2.609 2.609 0 0 0-.759 3.594Z" fill="url(#e)"/><path d="m189.206 49.713 2.047 3.159a2.587 2.587 0 0 0 3.584.758l134.271-87.228a2.586 2.586 0 0 0 .758-3.585l-2.046-3.158a2.588 2.588 0 0 0-3.585-.758L189.964 46.119a2.606 2.606 0 0 0-.758 3.594Z" fill="url(#f)"/><path d="m170.983 79.645 2.047 3.158a2.586 2.586 0 0 0 3.584.759L310.885-3.656a2.587 2.587 0 0 0 .759-3.585l-2.047-3.158a2.587 2.587 0 0 0-3.584-.759L171.741 76.061a2.595 2.595 0 0 0-.758 3.584Z" fill="url(#g)"/><path d="m200.925 103.073 2.047 3.158a2.586 2.586 0 0 0 3.584.758l134.271-87.218a2.587 2.587 0 0 0 .759-3.584l-2.047-3.158a2.587 2.587 0 0 0-3.584-.759L201.683 99.488a2.576 2.576 0 0 0-.758 3.585Z" fill="url(#h)"/><path d="m185.299 75.739 2.047 3.158a2.587 2.587 0 0 0 3.584.758L325.202-7.563a2.587 2.587 0 0 0 .758-3.584l-2.047-3.159a2.586 2.586 0 0 0-3.584-.758L186.058 72.154a2.594 2.594 0 0 0-.759 3.585Z" fill="url(#i)"/><path d="m197.019 66.627 2.046 3.158a2.588 2.588 0 0 0 3.585.759l134.271-87.218a2.587 2.587 0 0 0 .758-3.585l-2.046-3.158a2.588 2.588 0 0 0-3.585-.758L197.777 63.043a2.586 2.586 0 0 0-.758 3.584Z" fill="url(#j)"/><path d="m122.829 119.986 2.046 3.159a2.588 2.588 0 0 0 3.585.758l134.271-87.218a2.587 2.587 0 0 0 .758-3.584l-2.046-3.159a2.588 2.588 0 0 0-3.585-.758l-134.271 87.218a2.595 2.595 0 0 0-.758 3.584Z" fill="url(#k)"/><path d="m213.932 106.979 2.047 3.158a2.586 2.586 0 0 0 3.584.759l134.272-87.218a2.587 2.587 0 0 0 .758-3.585l-2.047-3.158a2.586 2.586 0 0 0-3.584-.758l-134.271 87.218a2.594 2.594 0 0 0-.759 3.584Z" fill="url(#l)"/><path d="m144.958 133.004 2.047 3.159a2.587 2.587 0 0 0 3.584.758L284.86 49.703a2.587 2.587 0 0 0 .759-3.584l-2.047-3.159a2.588 2.588 0 0 0-3.585-.758L145.716 129.42a2.587 2.587 0 0 0-.758 3.584Z" fill="url(#m)"/><path d="m174.889 162.946 2.047 3.159a2.587 2.587 0 0 0 3.584.758l134.272-87.218a2.587 2.587 0 0 0 .758-3.584l-2.047-3.159a2.587 2.587 0 0 0-3.584-.758l-134.271 87.218c-1.195.769-1.538 2.379-.759 3.584Z" fill="url(#n)"/><path d="m211.335 99.166 2.047 3.159a2.587 2.587 0 0 0 3.584.758l134.271-87.218a2.587 2.587 0 0 0 .759-3.584l-2.047-3.159a2.587 2.587 0 0 0-3.584-.758L212.093 95.582a2.585 2.585 0 0 0-.758 3.584Z" fill="url(#o)"/><path d="m258.191 79.645 2.046 3.158a2.588 2.588 0 0 0 3.585.759L398.093-3.656a2.586 2.586 0 0 0 .758-3.585l-2.046-3.158a2.588 2.588 0 0 0-3.585-.759L258.949 76.061a2.585 2.585 0 0 0-.758 3.584Z" fill="url(#p)"/><path d="m200.925 110.875 2.047 3.158a2.586 2.586 0 0 0 3.584.759l134.271-87.218a2.587 2.587 0 0 0 .759-3.585l-2.047-3.158a2.587 2.587 0 0 0-3.584-.758L201.683 107.29a2.577 2.577 0 0 0-.758 3.584Z" fill="url(#q)"/><path d="m262.087 114.781 2.046 3.159a2.588 2.588 0 0 0 3.585.758L401.989 31.48a2.586 2.586 0 0 0 .758-3.584l-2.046-3.159a2.588 2.588 0 0 0-3.585-.758l-134.271 87.218a2.596 2.596 0 0 0-.758 3.584Z" fill="url(#r)"/><path d="m180.094 103.073 2.047 3.158a2.586 2.586 0 0 0 3.584.758l134.272-87.218a2.587 2.587 0 0 0 .758-3.584l-2.047-3.158a2.587 2.587 0 0 0-3.584-.759L180.853 99.488a2.595 2.595 0 0 0-.759 3.585Z" fill="url(#s)"/><path d="m226.95 93.961 2.047 3.159a2.587 2.587 0 0 0 3.584.758L366.852 10.66a2.587 2.587 0 0 0 .759-3.584l-2.047-3.159a2.587 2.587 0 0 0-3.584-.758L227.709 90.377a2.594 2.594 0 0 0-.759 3.584Z" fill="url(#t)"/><path d="m232.155 125.202 2.047 3.158a2.587 2.587 0 0 0 3.584.759l134.271-87.218a2.587 2.587 0 0 0 .759-3.585l-2.047-3.158a2.587 2.587 0 0 0-3.584-.758l-134.271 87.207a2.607 2.607 0 0 0-.759 3.595Z" fill="url(#u)"/><path d="m262.087 140.817 2.046 3.158a2.587 2.587 0 0 0 3.585.759l134.271-87.218a2.586 2.586 0 0 0 .758-3.585l-2.046-3.158a2.588 2.588 0 0 0-3.585-.758l-134.271 87.218a2.594 2.594 0 0 0-.758 3.584Z" fill="url(#v)"/><path d="m180.094 138.209 2.047 3.159a2.587 2.587 0 0 0 3.584.758l134.272-87.218a2.587 2.587 0 0 0 .758-3.584l-2.047-3.159a2.587 2.587 0 0 0-3.584-.758l-134.271 87.218a2.596 2.596 0 0 0-.759 3.584Z" fill="url(#w)"/><path d="m156.667 122.594 2.046 3.159a2.588 2.588 0 0 0 3.585.758l134.271-87.218a2.587 2.587 0 0 0 .758-3.584l-2.046-3.159a2.588 2.588 0 0 0-3.585-.758L157.425 119.01a2.593 2.593 0 0 0-.758 3.584Z" fill="url(#x)"/><path d="m-104.936 200.691 2.047 3.158a2.586 2.586 0 0 0 3.584.758l134.271-87.218a2.587 2.587 0 0 0 .759-3.584l-2.047-3.158a2.587 2.587 0 0 0-3.584-.759l-134.271 87.208a2.588 2.588 0 0 0-.759 3.595Z" fill="url(#y)"/><path d="m-63.295 195.475 2.046 3.158a2.587 2.587 0 0 0 3.585.759l134.27-87.218a2.588 2.588 0 0 0 .76-3.585l-2.048-3.158a2.587 2.587 0 0 0-3.584-.758l-134.26 87.218a2.59 2.59 0 0 0-.77 3.584Z" fill="url(#z)"/><path d="m-81.508 225.417 2.047 3.158a2.587 2.587 0 0 0 3.584.759l134.271-87.218a2.588 2.588 0 0 0 .759-3.585l-2.047-3.158a2.586 2.586 0 0 0-3.584-.758L-80.75 221.833a2.576 2.576 0 0 0-.758 3.584Z" fill="url(#A)"/><path d="m-51.576 248.845 2.046 3.158a2.587 2.587 0 0 0 3.585.759l134.27-87.218a2.588 2.588 0 0 0 .76-3.585l-2.047-3.158a2.586 2.586 0 0 0-3.585-.758l-134.271 87.218a2.594 2.594 0 0 0-.758 3.584Z" fill="url(#B)"/><path d="m-67.192 221.511 2.047 3.158a2.586 2.586 0 0 0 3.584.758l134.272-87.218a2.586 2.586 0 0 0 .758-3.584l-2.046-3.158a2.588 2.588 0 0 0-3.585-.759l-134.271 87.218a2.577 2.577 0 0 0-.758 3.585Z" fill="url(#C)"/><path d="m-55.483 212.399 2.047 3.159a2.587 2.587 0 0 0 3.584.758L84.42 129.098a2.587 2.587 0 0 0 .758-3.584l-2.047-3.159a2.587 2.587 0 0 0-3.584-.758l-134.271 87.218a2.594 2.594 0 0 0-.759 3.584Z" fill="url(#D)"/><path d="m-129.673 265.759 2.047 3.158a2.586 2.586 0 0 0 3.584.758L10.23 182.457a2.586 2.586 0 0 0 .758-3.584l-2.047-3.158a2.587 2.587 0 0 0-3.584-.759l-134.261 87.218a2.59 2.59 0 0 0-.769 3.585Z" fill="url(#E)"/><path d="m-38.559 252.751 2.047 3.159a2.587 2.587 0 0 0 3.584.758l134.272-87.218a2.587 2.587 0 0 0 .758-3.584l-2.047-3.159a2.587 2.587 0 0 0-3.584-.758L-37.8 249.157a2.598 2.598 0 0 0-.759 3.594Z" fill="url(#F)"/><path d="m-107.544 278.777 2.047 3.158a2.587 2.587 0 0 0 3.584.758l134.272-87.218a2.587 2.587 0 0 0 .758-3.584l-2.047-3.159a2.587 2.587 0 0 0-3.584-.758l-134.271 87.218a2.597 2.597 0 0 0-.759 3.585Z" fill="url(#G)"/><path d="m-77.612 308.718 2.047 3.159a2.587 2.587 0 0 0 3.584.758L62.29 225.417a2.587 2.587 0 0 0 .759-3.584l-2.047-3.159a2.587 2.587 0 0 0-3.584-.758l-134.261 87.208a2.6 2.6 0 0 0-.769 3.594Z" fill="url(#H)"/><path d="m-41.166 244.939 2.046 3.158a2.586 2.586 0 0 0 3.585.758l134.27-87.218a2.586 2.586 0 0 0 .76-3.584l-2.047-3.158a2.587 2.587 0 0 0-3.585-.759l-134.27 87.218a2.595 2.595 0 0 0-.76 3.585Z" fill="url(#I)"/><path d="m5.69 225.417 2.046 3.158a2.587 2.587 0 0 0 3.584.759l134.272-87.218a2.588 2.588 0 0 0 .758-3.585l-2.047-3.158a2.586 2.586 0 0 0-3.584-.758L6.448 221.833a2.594 2.594 0 0 0-.759 3.584Z" fill="url(#J)"/><path d="m-51.576 256.647 2.046 3.159a2.587 2.587 0 0 0 3.585.758l134.27-87.218a2.587 2.587 0 0 0 .76-3.584l-2.047-3.159a2.587 2.587 0 0 0-3.585-.758l-134.27 87.218a2.596 2.596 0 0 0-.76 3.584Z" fill="url(#K)"/><path d="m9.596 260.554 2.046 3.158a2.586 2.586 0 0 0 3.585.758l134.271-87.218a2.586 2.586 0 0 0 .758-3.584l-2.046-3.158a2.588 2.588 0 0 0-3.585-.759l-134.27 87.218a2.597 2.597 0 0 0-.76 3.585Z" fill="url(#L)"/><path d="m-72.407 248.845 2.047 3.158a2.587 2.587 0 0 0 3.584.759l134.271-87.218a2.588 2.588 0 0 0 .759-3.585l-2.047-3.158a2.586 2.586 0 0 0-3.584-.758l-134.261 87.218a2.587 2.587 0 0 0-.769 3.584Z" fill="url(#M)"/><path d="m-25.551 239.734 2.046 3.158a2.586 2.586 0 0 0 3.585.758l134.271-87.218a2.586 2.586 0 0 0 .758-3.584l-2.046-3.158a2.587 2.587 0 0 0-3.585-.759l-134.27 87.218a2.595 2.595 0 0 0-.76 3.585Z" fill="url(#N)"/><path d="m-20.336 270.964 2.047 3.158a2.587 2.587 0 0 0 3.584.759l134.271-87.219a2.586 2.586 0 0 0 .759-3.584l-2.047-3.158a2.587 2.587 0 0 0-3.584-.759l-134.271 87.218a2.579 2.579 0 0 0-.759 3.585Z" fill="url(#O)"/><path d="m9.596 286.589 2.046 3.159a2.587 2.587 0 0 0 3.585.758l134.271-87.218a2.586 2.586 0 0 0 .758-3.584l-2.046-3.159a2.588 2.588 0 0 0-3.585-.758l-134.27 87.218a2.594 2.594 0 0 0-.76 3.584Z" fill="url(#P)"/><path d="m-72.407 283.982 2.047 3.158a2.587 2.587 0 0 0 3.584.758L67.495 200.68a2.586 2.586 0 0 0 .759-3.584l-2.047-3.158a2.587 2.587 0 0 0-3.584-.759l-134.261 87.218a2.59 2.59 0 0 0-.769 3.585Z" fill="url(#Q)"/><path d="m-95.835 268.366 2.047 3.159a2.587 2.587 0 0 0 3.584.758l134.272-87.218a2.587 2.587 0 0 0 .758-3.584l-2.047-3.159a2.587 2.587 0 0 0-3.584-.758l-134.261 87.218a2.587 2.587 0 0 0-.769 3.584Z" fill="url(#R)"/></g><defs><linearGradient id="a" x1="38.896" y1="249.135" x2="313.105" y2="-25.073" gradientUnits="userSpaceOnUse"><stop stop-color="#F7931E"/><stop offset="1" stop-color="#ED1E79"/></linearGradient><linearGradient id="b" x1="38.918" y1="248.807" x2="313.124" y2="-25.399" gradientUnits="userSpaceOnUse"><stop stop-color="#ED1C24"/><stop offset="1" stop-color="#4F339A"/></linearGradient><linearGradient id="c" x1="38.967" y1="249.487" x2="313.437" y2="-23.285" gradientUnits="userSpaceOnUse"><stop stop-color="#ED1C24"/><stop offset="1" stop-color="#4F339A"/></linearGradient><linearGradient id="e" x1="122.352" y1="77.89" x2="269.908" y2="-49.613" gradientUnits="userSpaceOnUse"><stop stop-color="#ED1E79"/><stop offset="1" stop-color="#662D91"/></linearGradient><linearGradient id="f" x1="164.001" y1="72.682" x2="311.557" y2="-54.821" gradientUnits="userSpaceOnUse"><stop stop-color="#ED1E79"/><stop offset="1" stop-color="#662D91"/></linearGradient><linearGradient id="g" x1="145.777" y1="102.616" x2="293.334" y2="-24.886" gradientUnits="userSpaceOnUse"><stop stop-color="#ED1E79"/><stop offset="1" stop-color="#662D91"/></linearGradient><linearGradient id="h" x1="175.711" y1="126.04" x2="323.267" y2="-1.462" gradientUnits="userSpaceOnUse"><stop stop-color="#ED1E79"/><stop offset="1" stop-color="#662D91"/></linearGradient><linearGradient id="i" x1="160.094" y1="98.711" x2="307.65" y2="-28.792" gradientUnits="userSpaceOnUse"><stop stop-color="#ED1E79"/><stop offset="1" stop-color="#662D91"/></linearGradient><linearGradient id="j" x1="171.809" y1="89.6" x2="319.365" y2="-37.903" gradientUnits="userSpaceOnUse"><stop stop-color="#ED1E79"/><stop offset="1" stop-color="#662D91"/></linearGradient><linearGradient id="k" x1="97.619" y1="142.964" x2="245.175" y2="15.461" gradientUnits="userSpaceOnUse"><stop stop-color="#ED1E79"/><stop offset="1" stop-color="#662D91"/></linearGradient><linearGradient id="l" x1="188.726" y1="129.944" x2="336.282" y2="2.441" gradientUnits="userSpaceOnUse"><stop stop-color="#ED1E79"/><stop offset="1" stop-color="#662D91"/></linearGradient><linearGradient id="m" x1="119.744" y1="155.977" x2="267.3" y2="28.474" gradientUnits="userSpaceOnUse"><stop stop-color="#ED1E79"/><stop offset="1" stop-color="#662D91"/></linearGradient><linearGradient id="n" x1="149.676" y1="185.908" x2="297.232" y2="58.406" gradientUnits="userSpaceOnUse"><stop stop-color="#ED1E79"/><stop offset="1" stop-color="#662D91"/></linearGradient><linearGradient id="o" x1="186.123" y1="122.136" x2="333.679" y2="-5.367" gradientUnits="userSpaceOnUse"><stop stop-color="#ED1E79"/><stop offset="1" stop-color="#662D91"/></linearGradient><linearGradient id="p" x1="232.979" y1="102.611" x2="380.535" y2="-24.891" gradientUnits="userSpaceOnUse"><stop stop-color="#ED1E79"/><stop offset="1" stop-color="#662D91"/></linearGradient><linearGradient id="q" x1="175.71" y1="133.849" x2="323.266" y2="6.347" gradientUnits="userSpaceOnUse"><stop stop-color="#ED1E79"/><stop offset="1" stop-color="#662D91"/></linearGradient><linearGradient id="r" x1="236.881" y1="137.75" x2="384.437" y2="10.247" gradientUnits="userSpaceOnUse"><stop stop-color="#ED1E79"/><stop offset="1" stop-color="#662D91"/></linearGradient><linearGradient id="s" x1="154.886" y1="126.042" x2="302.443" y2="-1.461" gradientUnits="userSpaceOnUse"><stop stop-color="#ED1E79"/><stop offset="1" stop-color="#662D91"/></linearGradient><linearGradient id="t" x1="201.742" y1="116.929" x2="349.298" y2="-10.574" gradientUnits="userSpaceOnUse"><stop stop-color="#ED1E79"/><stop offset="1" stop-color="#662D91"/></linearGradient><linearGradient id="u" x1="206.946" y1="148.163" x2="354.502" y2="20.66" gradientUnits="userSpaceOnUse"><stop stop-color="#ED1E79"/><stop offset="1" stop-color="#662D91"/></linearGradient><linearGradient id="v" x1="236.879" y1="163.779" x2="384.436" y2="36.276" gradientUnits="userSpaceOnUse"><stop stop-color="#ED1E79"/><stop offset="1" stop-color="#662D91"/></linearGradient><linearGradient id="w" x1="154.884" y1="161.181" x2="302.44" y2="33.678" gradientUnits="userSpaceOnUse"><stop stop-color="#ED1E79"/><stop offset="1" stop-color="#662D91"/></linearGradient><linearGradient id="x" x1="131.458" y1="145.565" x2="279.014" y2="18.062" gradientUnits="userSpaceOnUse"><stop stop-color="#ED1E79"/><stop offset="1" stop-color="#662D91"/></linearGradient><linearGradient id="y" x1="-130.152" y1="223.667" x2="17.405" y2="96.164" gradientUnits="userSpaceOnUse"><stop stop-color="#ED1E79"/><stop offset="1" stop-color="#662D91"/></linearGradient><linearGradient id="z" x1="-88.503" y1="218.459" x2="59.053" y2="90.956" gradientUnits="userSpaceOnUse"><stop stop-color="#ED1E79"/><stop offset="1" stop-color="#662D91"/></linearGradient><linearGradient id="A" x1="-106.726" y1="248.393" x2="40.83" y2="120.89" gradientUnits="userSpaceOnUse"><stop stop-color="#ED1E79"/><stop offset="1" stop-color="#662D91"/></linearGradient><linearGradient id="B" x1="-76.793" y1="271.817" x2="70.764" y2="144.315" gradientUnits="userSpaceOnUse"><stop stop-color="#ED1E79"/><stop offset="1" stop-color="#662D91"/></linearGradient><linearGradient id="C" x1="-92.409" y1="244.488" x2="55.147" y2="116.985" gradientUnits="userSpaceOnUse"><stop stop-color="#ED1E79"/><stop offset="1" stop-color="#662D91"/></linearGradient><linearGradient id="D" x1="-80.695" y1="235.377" x2="66.861" y2="107.874" gradientUnits="userSpaceOnUse"><stop stop-color="#ED1E79"/><stop offset="1" stop-color="#662D91"/></linearGradient><linearGradient id="E" x1="-154.885" y1="288.741" x2="-7.329" y2="161.238" gradientUnits="userSpaceOnUse"><stop stop-color="#ED1E79"/><stop offset="1" stop-color="#662D91"/></linearGradient><linearGradient id="F" x1="-63.778" y1="275.721" x2="83.778" y2="148.218" gradientUnits="userSpaceOnUse"><stop stop-color="#ED1E79"/><stop offset="1" stop-color="#662D91"/></linearGradient><linearGradient id="G" x1="-132.76" y1="301.754" x2="14.796" y2="174.251" gradientUnits="userSpaceOnUse"><stop stop-color="#ED1E79"/><stop offset="1" stop-color="#662D91"/></linearGradient><linearGradient id="H" x1="-102.827" y1="331.685" x2="44.729" y2="204.182" gradientUnits="userSpaceOnUse"><stop stop-color="#ED1E79"/><stop offset="1" stop-color="#662D91"/></linearGradient><linearGradient id="I" x1="-66.38" y1="267.912" x2="81.176" y2="140.41" gradientUnits="userSpaceOnUse"><stop stop-color="#ED1E79"/><stop offset="1" stop-color="#662D91"/></linearGradient><linearGradient id="J" x1="-19.525" y1="248.388" x2="128.031" y2="120.885" gradientUnits="userSpaceOnUse"><stop stop-color="#ED1E79"/><stop offset="1" stop-color="#662D91"/></linearGradient><linearGradient id="K" x1="-76.793" y1="279.626" x2="70.763" y2="152.123" gradientUnits="userSpaceOnUse"><stop stop-color="#ED1E79"/><stop offset="1" stop-color="#662D91"/></linearGradient><linearGradient id="L" x1="-15.622" y1="283.527" x2="131.934" y2="156.024" gradientUnits="userSpaceOnUse"><stop stop-color="#ED1E79"/><stop offset="1" stop-color="#662D91"/></linearGradient><linearGradient id="M" x1="-97.617" y1="271.818" x2="49.939" y2="144.316" gradientUnits="userSpaceOnUse"><stop stop-color="#ED1E79"/><stop offset="1" stop-color="#662D91"/></linearGradient><linearGradient id="N" x1="-50.762" y1="262.706" x2="96.794" y2="135.203" gradientUnits="userSpaceOnUse"><stop stop-color="#ED1E79"/><stop offset="1" stop-color="#662D91"/></linearGradient><linearGradient id="O" x1="-45.558" y1="293.94" x2="101.998" y2="166.437" gradientUnits="userSpaceOnUse"><stop stop-color="#ED1E79"/><stop offset="1" stop-color="#662D91"/></linearGradient><linearGradient id="P" x1="-15.624" y1="309.555" x2="131.932" y2="182.053" gradientUnits="userSpaceOnUse"><stop stop-color="#ED1E79"/><stop offset="1" stop-color="#662D91"/></linearGradient><linearGradient id="Q" x1="-97.62" y1="306.957" x2="49.936" y2="179.455" gradientUnits="userSpaceOnUse"><stop stop-color="#ED1E79"/><stop offset="1" stop-color="#662D91"/></linearGradient><linearGradient id="R" x1="-121.046" y1="291.342" x2="26.511" y2="163.839" gradientUnits="userSpaceOnUse"><stop stop-color="#ED1E79"/><stop offset="1" stop-color="#662D91"/></linearGradient></defs></svg>